<svg width="120" height="120" viewBox="0 0 120 120" fill="none" xmlns="http://www.w3.org/2000/svg">
<g clip-path="url(#clip0_2490_3444)">
<path d="M56.0631 89.5286C41.8464 89.2124 24.7036 84.8485 9.68413 74.0084C7.36648 72.3388 5.24304 70.3149 3.36561 68.1899C-1.08842 63.1304 -1.08842 58.2606 3.27498 53.1125C8.7001 46.7121 15.8214 42.5 23.4994 39.3378C53.357 27.0684 82.0881 29.0163 109.291 46.5983C112.282 48.5336 114.898 51.2151 117.19 53.9473C120.944 58.425 120.88 62.5359 117.345 67.178C113.474 72.2502 108.307 75.8552 102.701 78.8782C89.6108 85.911 75.2776 89.478 56.0631 89.5412V89.5286ZM82.2435 60.7018C82.3212 48.7486 72.5068 38.9331 60.3229 38.7939C47.8283 38.6548 37.483 48.4956 37.483 60.55C37.483 72.3514 47.5952 82.4199 59.5201 82.4958C72.1442 82.5717 82.1528 72.9586 82.2305 60.7018H82.2435ZM41.4191 81.7622C35.5149 75.9058 31.9932 69.0248 31.9543 60.7271C31.9155 52.4168 35.3725 45.5105 41.7428 39.6667C41.0437 39.5529 40.7458 39.4264 40.4869 39.477C29.2612 42.1585 18.7735 46.3833 10.1244 54.0738C4.11659 59.4243 4.19427 62.0679 10.3056 67.3551C19.149 74.9824 29.6884 79.2704 41.4062 81.7622H41.4191ZM78.5534 81.7622C90.5171 79.1312 101.691 74.7673 110.69 66.2041C115.403 61.7137 115.403 59.4496 110.625 54.9339C101.769 46.5603 90.8279 42.1206 79.0065 39.4517C78.89 39.4264 78.7087 39.654 78.5534 39.7552C91.6177 52.2523 90.7372 70.0746 78.5534 81.7495V81.7622Z" fill="white"/>
<path d="M57.1247 0.455113C62.6534 -0.455607 62.7052 -0.41766 62.7052 4.43951C62.7052 8.95517 62.6146 13.4708 62.7311 17.9865C62.7829 20.1115 61.9025 20.6554 59.8697 20.668C57.7462 20.6807 57.0471 19.9597 57.073 17.9106C57.1765 12.0541 57.1118 6.21036 57.1118 0.442464L57.1247 0.455113Z" fill="white"/>
<path d="M57.3594 119.81V99.5723H62.668C62.668 105.897 62.9787 112.095 62.5385 118.229C62.3054 121.417 59.3274 119.203 57.3594 119.81Z" fill="white"/>
<path d="M109.848 107.339C105.097 101.9 100.72 96.9035 96.1367 91.6668C97.6775 90.4272 98.9464 89.39 100.461 88.1631C104.76 93.0582 109.149 97.5486 112.891 102.494C114.937 105.188 111.066 105.429 109.848 107.339Z" fill="white"/>
<path d="M100.437 31.8118C98.909 30.5469 97.7048 29.5603 96.1641 28.2828C100.709 23.0714 105.111 18.0119 109.474 13.0029C114.407 15.4695 114.485 15.8616 111.235 19.5298C107.662 23.5521 104.14 27.5997 100.424 31.8118H100.437Z" fill="white"/>
<path d="M19.513 88.1377C20.9761 89.3772 22.2191 90.4271 23.734 91.7046C19.0857 97.0045 14.6576 102.051 10.2812 107.035C5.58118 104.189 5.5035 103.886 8.57212 100.42C12.1328 96.3974 15.7063 92.3877 19.5 88.125L19.513 88.1377Z" fill="white"/>
<path d="M23.7065 28.3212C22.088 29.6367 20.8838 30.6106 19.4207 31.787C15.1739 26.9298 11.0953 22.2371 6.99088 17.5823C5.54073 15.9379 6.97793 15.2296 7.96196 14.3062C9.08842 13.2437 10.1242 12.6113 11.419 14.1165C15.394 18.746 19.4078 23.3502 23.7194 28.3086L23.7065 28.3212Z" fill="white"/>
<path d="M59.4301 73.7182C51.7133 73.6296 46.3529 68.0894 46.4047 60.2471C46.4565 52.8348 52.3736 47.1681 60.0387 47.1934C67.7685 47.2187 73.6986 53.0878 73.6468 60.6772C73.595 68.3803 67.6779 73.8067 59.4301 73.7182Z" fill="white"/>
</g>
<defs>
<clipPath id="clip0_2490_3444">
<rect width="120" height="120" fill="white"/>
</clipPath>
</defs>
</svg>
