<svg width="120" height="120" viewBox="0 0 120 120" fill="none" xmlns="http://www.w3.org/2000/svg">
<g clip-path="url(#clip0_2490_3405)">
<path d="M52.2368 120C33.319 119.257 15.9027 109.221 6.00594 88.467C-3.84079 67.8143 -1.47607 47.6149 12.3369 29.3423C26.888 10.0999 53.4754 3.03519 75.9215 11.8252C77.4479 12.4171 79.2371 12.6186 78.1486 15.2002C77.1977 17.4543 76.1842 17.7692 73.8946 16.9128C50.9981 8.3369 26.2499 16.7491 13.3128 37.4019C0.700968 57.5383 3.71629 83.7446 21.1827 100.405C35.8214 114.359 53.3503 118.401 72.3556 111.701C91.1608 105.077 102.296 91.1746 105.674 71.29C107.151 62.6133 106.062 54.1633 102.834 46.0282C101.921 43.7362 102.346 42.7036 104.586 41.7717C107.163 40.7139 107.363 42.5399 107.952 44.051C121.977 80.5082 94.9018 120.139 52.2118 119.988L52.2368 120Z" fill="#1F8A5A"/>
<path d="M88.8464 49.4658C93.188 46.3175 93.6133 46.4435 95.1148 51.1155C100.332 67.3858 95.4526 84.7266 82.528 95.8211C70.3165 106.299 52.0118 108.528 37.6734 101.274C22.4967 93.6047 13.6259 77.9137 14.827 60.8878C16.7288 33.6866 45.0303 15.4895 70.304 25.224C71.6052 25.7277 73.2943 25.9292 72.3184 28.196C71.4801 30.1227 70.8795 31.2561 68.2646 30.3746C46.344 22.9321 24.5861 35.7897 20.6324 58.3566C17.7422 74.8536 27.4889 91.8039 43.2912 97.7731C59.2436 103.793 77.4357 97.6975 86.2189 83.3162C92.3246 73.3298 93.4507 62.7768 89.5721 51.7074C89.3343 51.0148 89.1216 50.3221 88.8464 49.4784V49.4658Z" fill="#1F8A5A"/>
<path d="M54.6885 75.9616C51.0476 75.8482 47.3566 73.6067 45.3172 69.1109C43.2277 64.5144 43.7532 60.0564 47.1689 56.2407C50.5721 52.4502 54.9887 51.2538 59.6681 52.9665C62.2706 53.9236 63.5968 53.2184 65.2734 51.4805C71.229 45.3225 77.2596 39.2526 83.3653 33.2457C84.9543 31.6841 85.63 30.0974 84.9919 27.9439C83.5655 23.0956 84.629 19.2925 88.6953 15.8293C93.8377 11.4343 98.3169 6.27116 103.221 1.57392C104.147 0.6924 106.024 -0.277271 106.875 0.100523C107.988 0.604248 108.564 2.37988 109.265 3.67697C109.49 4.09255 109.352 4.70961 109.415 5.22593C109.928 9.55797 110.253 9.8728 114.507 10.3261C115.533 10.4395 116.584 10.5528 117.572 10.8677C120.037 11.6484 120.813 13.8522 119.036 15.6782C112.768 22.1133 106.525 28.5988 99.8683 34.5931C98.5296 35.8021 95.289 35.4998 93.112 35.0087C89.7964 34.2657 87.6819 35.2857 85.4548 37.6407C80.0122 43.4083 74.3694 49.0123 68.6766 54.5407C66.8248 56.3415 66.2493 57.8401 67.1126 60.5098C69.64 68.3301 64.0097 75.9112 54.676 75.9616H54.6885ZM112.605 14.7086C106.962 15.1745 105.036 12.0514 104.81 7.16527C103.684 7.97123 103.034 8.29865 102.533 8.78979C98.5421 12.7566 94.5759 16.7235 90.6347 20.7407C89.0207 22.3904 88.858 27.8054 90.2968 29.4551C91.5981 30.9411 97.2409 30.8781 98.8799 29.2662C102.884 25.3246 106.85 21.3326 110.791 17.3279C111.329 16.7738 111.692 16.0434 112.605 14.7212V14.7086Z" fill="#1F8A5A"/>
<path d="M82.9777 64.0988C82.6775 75.7979 75.3581 86.0487 64.4354 89.6881C53.5377 93.3149 41.3012 89.474 34.5699 80.2936C27.4882 70.6599 27.3756 57.9282 34.2696 48.3322C41.0259 38.9252 53.0497 34.8953 63.9474 38.3836C67.1754 39.4163 67.2505 39.8319 65.9118 42.7535C64.9483 44.8439 63.6847 44.0002 62.3084 43.6098C52.0237 40.7134 41.9518 44.9573 37.0847 54.2006C32.7056 62.5373 34.4322 73.2289 41.2011 79.6262C48.2827 86.3005 58.5549 87.4465 66.9127 82.4974C74.9828 77.7246 78.974 67.776 76.6468 58.6334C76.334 57.4245 76.1714 55.4851 76.847 54.8555C79.2367 52.6013 80.7882 53.1806 81.6015 56.417C82.227 58.9356 82.5273 61.5424 82.9777 64.0988Z" fill="#1F8A5A"/>
</g>
<defs>
<clipPath id="clip0_2490_3405">
<rect width="120" height="120" fill="white"/>
</clipPath>
</defs>
</svg>
