<svg width="24" height="24" viewBox="0 0 24 24" fill="none" xmlns="http://www.w3.org/2000/svg">
<path fill-rule="evenodd" clip-rule="evenodd" d="M20.0483 11.7617L9.54829 23.0117C9.41257 23.1572 9.22464 23.2427 9.02585 23.2496C8.82705 23.2564 8.63368 23.184 8.48826 23.0483C8.29823 22.8709 8.21359 22.6078 8.26456 22.3529L9.63949 15.4783L4.23666 13.4522C4.05041 13.3824 3.89954 13.2414 3.81723 13.0604C3.73491 12.8793 3.72791 12.6729 3.79775 12.4867C3.83229 12.3946 3.8846 12.3102 3.95171 12.2383L14.4517 0.988264C14.7343 0.685451 15.2089 0.669086 15.5117 0.951711C15.7018 1.12908 15.7864 1.39219 15.7354 1.64709L14.3605 8.5217L19.7633 10.5478C19.9496 10.6176 20.1005 10.7586 20.1828 10.9397C20.2651 11.1207 20.2721 11.3271 20.2022 11.5133C20.1677 11.6054 20.1154 11.6898 20.0483 11.7617ZM10.2532 20.058L18.1863 11.5584L13.2367 9.70225C12.8924 9.57314 12.6925 9.21348 12.7646 8.85292L13.7468 3.94196L5.81371 12.4416L10.7633 14.2978C11.1076 14.4269 11.3075 14.7865 11.2354 15.1471L10.2532 20.058Z" fill="#1F8A5A"/>
</svg>
