<svg width="24" height="24" viewBox="0 0 24 24" fill="none" xmlns="http://www.w3.org/2000/svg">
<path fill-rule="evenodd" clip-rule="evenodd" d="M9 3.75C9 3.75 12.2676 3.75 14.6111 4.80457C14.6111 4.80457 15.7854 5.33304 16.4571 6.04764C16.4571 6.04764 17.25 6.89122 17.25 7.875C17.25 7.875 17.25 8.85879 16.4571 9.70236C16.4571 9.70236 15.7854 10.417 14.6111 10.9454C14.6111 10.9454 12.2676 12 9 12C9 12 5.73242 12 3.38892 10.9454C3.38892 10.9454 2.21456 10.417 1.54289 9.70236C1.54289 9.70236 0.75 8.85878 0.75 7.875C0.75 7.875 0.75 6.89121 1.54289 6.04764C1.54289 6.04764 2.21456 5.33304 3.38893 4.80457C3.38893 4.80457 5.73242 3.75 9 3.75ZM9 5.25C9 5.25 6.05437 5.25 4.00447 6.17246C4.00447 6.17246 3.10277 6.57822 2.63588 7.07496C2.63588 7.07496 2.25 7.4855 2.25 7.875C2.25 7.875 2.25 8.2645 2.63588 8.67504C2.63588 8.67504 3.10277 9.17178 4.00447 9.57754C4.00447 9.57754 6.05437 10.5 9 10.5C9 10.5 11.9456 10.5 13.9955 9.57754C13.9955 9.57754 14.8972 9.17178 15.3641 8.67504C15.3641 8.67504 15.75 8.2645 15.75 7.875C15.75 7.875 15.75 7.4855 15.3641 7.07496C15.3641 7.07496 14.8972 6.57822 13.9955 6.17246C13.9955 6.17246 11.9456 5.25 9 5.25Z" fill="#1F8A5A"/>
<path d="M17.25 11.625V7.875C17.25 7.46079 16.9142 7.125 16.5 7.125C16.0858 7.125 15.75 7.46079 15.75 7.875V11.625C15.75 12.0152 15.3642 12.4259 15.3642 12.4259C14.8976 12.9226 13.9962 13.3281 13.9962 13.3281C11.9472 14.25 9 14.25 9 14.25C6.05277 14.25 4.00382 13.3281 4.00382 13.3281C3.1024 12.9226 2.63579 12.4259 2.63579 12.4259C2.25 12.0152 2.25 11.625 2.25 11.625V7.875C2.25 7.46078 1.91421 7.125 1.5 7.125C1.08579 7.125 0.75 7.46078 0.75 7.875V11.625C0.75 12.6093 1.54253 13.4529 1.54253 13.4529C2.21404 14.1677 3.38837 14.6961 3.38837 14.6961C5.73088 15.75 9 15.75 9 15.75C12.2691 15.75 14.6116 14.6961 14.6116 14.6961C15.786 14.1677 16.4575 13.4529 16.4575 13.4529C17.25 12.6093 17.25 11.625 17.25 11.625Z" fill="#1F8A5A"/>
<path d="M5.25 10.9688V14.7188C5.25 15.133 5.58579 15.4688 6 15.4688C6.41421 15.4688 6.75 15.133 6.75 14.7188V10.9688C6.75 10.5545 6.41421 10.2188 6 10.2188C5.58579 10.2188 5.25 10.5545 5.25 10.9688Z" fill="#1F8A5A"/>
<path d="M16.5717 8.31907C19.3145 8.57488 21.1417 9.56939 21.1417 9.56939C23.25 10.7168 23.25 12.375 23.25 12.375C23.25 13.3593 22.4575 14.2029 22.4575 14.2029C21.786 14.9177 20.6116 15.4461 20.6116 15.4461C18.2691 16.5 15 16.5 15 16.5C12.1427 16.5 9.91139 15.6658 9.91139 15.6658C9.91037 15.6655 9.90935 15.6651 9.90935 15.6651C9.72305 15.5954 9.5718 15.4544 9.48935 15.2734C9.44852 15.1838 9.42575 15.087 9.42233 14.9886C9.42203 14.9799 9.42188 14.9712 9.42188 14.9625C9.42188 14.8728 9.43798 14.7838 9.46942 14.6997C9.57722 14.4116 9.85005 14.2185 10.1576 14.2127L10.1719 14.2125C10.2616 14.2125 10.3506 14.2286 10.4347 14.2601C12.4126 15 15 15 15 15C17.9472 15 19.9962 14.0782 19.9962 14.0782C20.8976 13.6726 21.3642 13.1759 21.3642 13.1759C21.75 12.7652 21.75 12.375 21.75 12.375C21.75 11.6082 20.4247 10.8869 20.4247 10.8869C18.8676 10.0394 16.4304 9.81241 16.4304 9.81241C16.0448 9.77649 15.75 9.45291 15.75 9.06564C15.75 9.04315 15.751 9.02066 15.753 8.99825L15.7532 8.99608C15.7695 8.82196 15.846 8.65897 15.9697 8.53531C15.9861 8.51889 16.0033 8.50324 16.0211 8.48841C16.1557 8.37676 16.3251 8.31564 16.5 8.31564C16.5225 8.31564 16.545 8.31666 16.5674 8.31868L16.5696 8.31888L16.5717 8.31907Z" fill="#1F8A5A"/>
<path d="M23.25 16.125V12.375C23.25 11.9608 22.9142 11.625 22.5 11.625C22.0858 11.625 21.75 11.9608 21.75 12.375V16.125C21.75 16.5152 21.3642 16.9259 21.3642 16.9259C20.8976 17.4226 19.9962 17.8281 19.9962 17.8281C17.9472 18.75 15 18.75 15 18.75C12.0528 18.75 10.0038 17.8281 10.0038 17.8281C9.1024 17.4226 8.63579 16.9259 8.63579 16.9259C8.25 16.5152 8.25 16.125 8.25 16.125L8.25 14.9344C8.25 14.5202 7.91421 14.1844 7.5 14.1844C7.08579 14.1844 6.75 14.5202 6.75 14.9344L6.75 16.125C6.75 17.1093 7.54253 17.9529 7.54253 17.9529C8.21404 18.6677 9.38837 19.1961 9.38837 19.1961C11.7309 20.25 15 20.25 15 20.25C18.2691 20.25 20.6116 19.1961 20.6116 19.1961C21.786 18.6677 22.4575 17.9529 22.4575 17.9529C23.25 17.1093 23.25 16.125 23.25 16.125Z" fill="#1F8A5A"/>
<path d="M17.25 15.4688V19.2188C17.25 19.633 17.5858 19.9688 18 19.9688C18.4142 19.9688 18.75 19.633 18.75 19.2188V15.4688C18.75 15.0545 18.4142 14.7188 18 14.7188C17.5858 14.7188 17.25 15.0545 17.25 15.4688Z" fill="#1F8A5A"/>
<path d="M11.25 10.9688V19.2188C11.25 19.633 11.5858 19.9688 12 19.9688C12.4142 19.9688 12.75 19.633 12.75 19.2188V10.9688C12.75 10.5545 12.4142 10.2188 12 10.2188C11.5858 10.2188 11.25 10.5545 11.25 10.9688Z" fill="#1F8A5A"/>
</svg>
