<svg width="28" height="28" viewBox="0 0 28 28" fill="none" xmlns="http://www.w3.org/2000/svg">
<path fill-rule="evenodd" clip-rule="evenodd" d="M8.08565 23.0556L13.3357 16.9306C13.4867 16.7544 13.7015 16.6454 13.9329 16.6276C14.1643 16.6098 14.3932 16.6846 14.5694 16.8357C14.6035 16.8648 14.6352 16.8965 14.6643 16.9306L19.9143 23.0556C20.2288 23.4225 20.1864 23.9749 19.8194 24.2894C19.6609 24.4253 19.4589 24.5 19.25 24.5H8.75C8.26675 24.5 7.875 24.1083 7.875 23.625C7.875 23.4161 7.94972 23.2141 8.08565 23.0556ZM14 18.8445L17.3476 22.75H10.6524L14 18.8445Z" fill="#1F8A5A"/>
<path d="M23.3687 19.8687C23.1124 20.125 22.75 20.125 22.75 20.125H21C20.5168 20.125 20.125 20.5168 20.125 21C20.125 21.4832 20.5168 21.875 21 21.875H22.75C23.8373 21.875 24.6062 21.1062 24.6062 21.1062C25.375 20.3373 25.375 19.25 25.375 19.25V7C25.375 5.91269 24.6062 5.14384 24.6062 5.14384C23.8373 4.375 22.75 4.375 22.75 4.375H5.25C4.16269 4.375 3.39384 5.14384 3.39384 5.14384C2.625 5.91269 2.625 7 2.625 7V19.25C2.625 20.3373 3.39384 21.1062 3.39384 21.1062C4.16269 21.875 5.25 21.875 5.25 21.875H7C7.48325 21.875 7.875 21.4832 7.875 21C7.875 20.5168 7.48325 20.125 7 20.125H5.25C4.88756 20.125 4.63128 19.8687 4.63128 19.8687C4.375 19.6124 4.375 19.25 4.375 19.25V7C4.375 6.63756 4.63128 6.38128 4.63128 6.38128C4.88756 6.125 5.25 6.125 5.25 6.125H22.75C23.1124 6.125 23.3687 6.38128 23.3687 6.38128C23.625 6.63756 23.625 7 23.625 7V19.25C23.625 19.6124 23.3687 19.8687 23.3687 19.8687Z" fill="#1F8A5A"/>
</svg>
