<svg width="24" height="24" viewBox="0 0 24 24" fill="none" xmlns="http://www.w3.org/2000/svg">
<path fill-rule="evenodd" clip-rule="evenodd" d="M19.5779 6.00001C19.5779 6.00001 20.147 6.00268 20.5727 6.38047C20.5727 6.38047 20.9984 6.75825 21.0686 7.32304L22.401 19.3329C22.401 19.3329 22.4368 19.6484 22.3404 19.9527C22.3404 19.9527 22.2441 20.2571 22.0322 20.4958C22.0322 20.4958 21.8203 20.7345 21.5295 20.8663C21.5295 20.8663 21.2388 20.998 20.9196 21L3.08373 21C3.08373 21 2.75992 20.998 2.46918 20.8663C2.46918 20.8663 2.17844 20.7345 1.96653 20.4958C1.96653 20.4958 1.75463 20.2571 1.65829 19.9527C1.65829 19.9527 1.56195 19.6484 1.59787 19.3312L2.92893 7.33293C2.92893 7.33293 3.00035 6.75825 3.42602 6.38047C3.42602 6.38047 3.8517 6.00268 4.42083 6.00001L19.5744 6L19.5779 6.00001ZM4.42788 7.49999L19.5708 7.5C19.5708 7.5 19.5745 7.50013 19.577 7.50236C19.577 7.50236 19.5797 7.5047 19.5801 7.50821L20.9102 19.4983L20.9104 19.5H3.08834L4.41976 7.49852C4.41976 7.49852 4.41932 7.50257 4.4203 7.50295C4.4203 7.50295 4.42081 7.50314 4.4217 7.50236C4.4217 7.50236 4.42434 7.50001 4.42788 7.49999Z" fill="#1F8A5A"/>
<path d="M14.9994 6.75V9.75C14.9994 10.1642 15.3352 10.5 15.7494 10.5C16.1636 10.5 16.4994 10.1642 16.4994 9.75V6.75C16.4994 4.88604 15.1814 3.56802 15.1814 3.56802C13.8634 2.25 11.9994 2.25 11.9994 2.25C10.1354 2.25 8.81741 3.56802 8.81741 3.56802C7.49939 4.88604 7.49939 6.75 7.49939 6.75V9.75C7.49939 10.1642 7.83518 10.5 8.24939 10.5C8.6636 10.5 8.99939 10.1642 8.99939 9.75V6.75C8.99939 5.50736 9.87807 4.62868 9.87807 4.62868C10.7567 3.75 11.9994 3.75 11.9994 3.75C13.242 3.75 14.1207 4.62868 14.1207 4.62868C14.9994 5.50736 14.9994 6.75 14.9994 6.75Z" fill="#1F8A5A"/>
</svg>
