<svg width="28" height="28" viewBox="0 0 28 28" fill="none" xmlns="http://www.w3.org/2000/svg">
<path fill-rule="evenodd" clip-rule="evenodd" d="M13.5414 2.7548C13.8226 2.58173 14.1774 2.58173 14.4586 2.7548L25.8336 9.7548C26.0924 9.91405 26.25 10.1961 26.25 10.5C26.25 10.9832 25.8583 11.375 25.375 11.375H2.625C2.32115 11.375 2.03905 11.2174 1.8798 10.9586C1.62653 10.547 1.75485 10.0081 2.16642 9.7548L13.5414 2.7548ZM5.71641 9.625L14 4.52741L22.2836 9.625H5.71641Z" fill="#1F8A5A"/>
<path d="M5.25 10.5V19.25C5.25 19.7332 5.64175 20.125 6.125 20.125C6.60825 20.125 7 19.7332 7 19.25V10.5C7 10.0168 6.60825 9.625 6.125 9.625C5.64175 9.625 5.25 10.0168 5.25 10.5Z" fill="#1F8A5A"/>
<path d="M10.5 10.5V19.25C10.5 19.7332 10.8918 20.125 11.375 20.125C11.8582 20.125 12.25 19.7332 12.25 19.25V10.5C12.25 10.0168 11.8582 9.625 11.375 9.625C10.8918 9.625 10.5 10.0168 10.5 10.5Z" fill="#1F8A5A"/>
<path d="M15.75 10.5V19.25C15.75 19.7332 16.1418 20.125 16.625 20.125C17.1082 20.125 17.5 19.7332 17.5 19.25V10.5C17.5 10.0168 17.1082 9.625 16.625 9.625C16.1418 9.625 15.75 10.0168 15.75 10.5Z" fill="#1F8A5A"/>
<path d="M21 10.5V19.25C21 19.7332 21.3918 20.125 21.875 20.125C22.3582 20.125 22.75 19.7332 22.75 19.25V10.5C22.75 10.0168 22.3582 9.625 21.875 9.625C21.3918 9.625 21 10.0168 21 10.5Z" fill="#1F8A5A"/>
<path d="M3.5 20.125H24.5C24.9832 20.125 25.375 19.7332 25.375 19.25C25.375 18.7668 24.9832 18.375 24.5 18.375H3.5C3.01675 18.375 2.625 18.7668 2.625 19.25C2.625 19.7332 3.01675 20.125 3.5 20.125Z" fill="#1F8A5A"/>
<path d="M1.75 23.625H26.25C26.7332 23.625 27.125 23.2332 27.125 22.75C27.125 22.2668 26.7332 21.875 26.25 21.875H1.75C1.26675 21.875 0.875 22.2668 0.875 22.75C0.875 23.2332 1.26675 23.625 1.75 23.625Z" fill="#1F8A5A"/>
</svg>
