<svg width="32" height="32" viewBox="0 0 32 32" fill="none" xmlns="http://www.w3.org/2000/svg">
<g clip-path="url(#clip0_1530_7811)">
<path d="M8.56 3.91992H1V15.8499H8.56V3.91992Z" fill="#D32D26"/>
<path d="M16.36 3.91992H8.75V15.8499H12.22C12.14 15.2399 12.22 14.6099 12.39 14.0199C12.91 12.2799 14.54 10.9799 16.36 10.8399V3.91992Z" fill="#D32D26"/>
<path d="M28.1097 9.30992C28.1697 6.52992 25.9097 4.17992 23.1697 3.91992H17.2197V9.30992H28.0997H28.1097Z" fill="#D32D26"/>
<path d="M28.1105 9.45994H17.2305V10.8299L17.3105 10.8899C20.1405 11.2399 21.8605 14.0899 21.0305 16.7899C20.5305 18.4299 19.0205 19.7199 17.3105 19.8999L17.2305 19.9599V21.0399H25.1805V16.2799H25.9305L26.0005 16.3499V18.0099H28.0705V16.2799H28.8905V21.0399H31.0105C30.9505 17.6599 28.3205 14.7099 24.9405 14.3499L26.2905 13.4599C27.4105 12.4499 28.1505 10.9799 28.1205 9.43994L28.1105 9.45994Z" fill="#D32D26"/>
<path d="M8.56 16H1V27.98H8.56V16Z" fill="#D32D26"/>
<path d="M16.3598 27.98V19.92C16.1698 19.81 15.8898 19.82 15.6598 19.76C14.0098 19.34 12.8098 18.16 12.3398 16.53C12.2898 16.36 12.3098 16.13 12.1998 16H8.75977V27.98H16.3698H16.3598Z" fill="#D32D26"/>
<path d="M18.0005 21.1997H17.2305V28.0797H24.3805C26.1405 27.9697 27.9105 27.2497 29.0705 25.9097H27.2405V21.1997H25.7005V26.0097H24.8105C24.0705 25.0997 23.4905 24.0097 22.7805 23.0897C22.7505 23.0497 22.7805 22.9997 22.6705 23.0297V26.0097H21.8505V21.1997H20.6005V21.9697H18.7705V22.9097L18.8405 22.9797H20.6005V23.7497H18.7705V25.1497H20.6005V25.9197H18.0005V21.2097V21.1997Z" fill="#D32D26"/>
<path d="M24.7897 21.1997H22.7197L24.7897 24.1797V21.1997Z" fill="#D32D26"/>
<path d="M30.9996 21.1997H29.8396V21.9697H28.0596V22.9797H29.8396V23.7497H28.0596V25.1497H29.7196C30.5596 24.0197 30.9696 22.6097 30.9996 21.1997Z" fill="#D32D26"/>
<path d="M8.56 16H1V27.98H8.56V16Z" fill="#D32D26"/>
<path d="M8.56 3.91992H1V15.8499H8.56V3.91992Z" fill="#D32D26"/>
<path d="M16.36 27.98H8.75V16H12.19C12.3 16.13 12.28 16.35 12.33 16.53C12.8 18.16 14 19.33 15.65 19.76C15.89 19.82 16.16 19.82 16.35 19.92V27.98H16.36Z" fill="#D32D26"/>
<path d="M16.36 3.91992V10.8499C14.54 10.9799 12.91 12.2799 12.39 14.0299C12.21 14.6199 12.14 15.2499 12.22 15.8599H8.75V3.91992H16.36Z" fill="#D32D26"/>
<path d="M28.1105 9.30992H17.2305V3.91992H23.1805C25.9105 4.17992 28.1705 6.52992 28.1205 9.30992H28.1105Z" fill="#D32D26"/>
<path d="M24.9305 14.3597L26.2805 13.4697C27.4005 12.4597 28.1405 10.9897 28.1105 9.44971H17.2305V10.8197L17.3105 10.8797C20.1405 11.2297 21.8605 14.0797 21.0305 16.7797C20.5305 18.4197 19.0205 19.7097 17.3105 19.8897L17.2305 19.9497V21.0297H31.0005C30.9405 17.6497 28.3105 14.6997 24.9305 14.3397V14.3597Z" fill="#D32D26"/>
<path d="M29.9897 21.1999H17.2197V28.0799H24.3697C26.1297 27.9699 27.8997 27.2499 29.0597 25.9099C29.0597 25.9099 29.2297 25.7499 29.7097 25.1399C30.5497 24.0099 30.9597 22.5999 30.9897 21.1899H29.9797L29.9897 21.1999Z" fill="#D32D26"/>
</g>
<defs>
<clipPath id="clip0_1530_7811">
<rect width="32" height="32" fill="white"/>
</clipPath>
</defs>
</svg>
