<svg width="180" height="180" viewBox="0 0 180 180" fill="none" xmlns="http://www.w3.org/2000/svg">
<g clip-path="url(#clip0_1530_7851)">
<path d="M47.84 21.5601H5V89.1701H47.84V21.5601Z" fill="#D32D26"/>
<path d="M92.0504 21.5601H48.9404V89.1701H68.5904C68.1204 85.7201 68.5404 82.1401 69.5504 78.8101C72.5204 68.9301 81.7504 61.5601 92.0604 60.8101V21.5601H92.0504Z" fill="#D32D26"/>
<path d="M158.63 52.0998C158.95 36.3698 146.15 23.0198 130.66 21.5698H96.96V52.0998H158.63Z" fill="#D32D26"/>
<path d="M158.63 52.9199H96.96V60.6899L97.42 61.0499C113.46 63.0199 123.22 79.1699 118.52 94.4999C115.68 103.77 107.14 111.1 97.42 112.13L96.96 112.49V118.62H141.98V91.6299H146.21L146.62 92.0399V101.45H158.35V91.6399H162.99V118.63H175C174.66 99.4599 159.75 82.7399 140.62 80.7299L148.26 75.6899C154.6 69.9399 158.82 61.6199 158.63 52.9199Z" fill="#D32D26"/>
<path d="M47.84 89.9902H5V157.88H47.84V89.9902Z" fill="#D32D26"/>
<path d="M92.0497 157.88V112.21C90.9697 111.61 89.3897 111.64 88.0597 111.29C78.7297 108.89 71.9097 102.24 69.2597 92.9902C68.9797 92.0002 69.0797 90.7502 68.4397 89.9902H48.9297V157.88H92.0397H92.0497Z" fill="#D32D26"/>
<path d="M101.32 119.44H96.9502V158.43H137.48C147.46 157.82 157.47 153.75 164.07 146.16H153.7V119.44H144.97V146.7H139.92C135.74 141.52 132.47 135.36 128.4 130.14C128.22 129.91 128.4 129.64 127.78 129.8V146.7H123.14V119.44H116.05V123.8H105.68V129.12L106.09 129.53H116.05V133.89H105.68V141.8H116.05V146.16H101.31V119.44H101.32Z" fill="#D32D26"/>
<path d="M139.8 119.44H128.07L139.8 136.34V119.44Z" fill="#D32D26"/>
<path d="M175 119.44H168.45V123.8H158.35V129.53H168.45V133.89H158.35V141.8H167.76C172.54 135.42 174.87 127.41 174.99 119.44H175Z" fill="#D32D26"/>
<path d="M47.84 89.9902H5V157.88H47.84V89.9902Z" fill="#D32D26"/>
<path d="M47.84 21.5601H5V89.1701H47.84V21.5601Z" fill="#D32D26"/>
<path d="M92.0504 157.88H48.9404V89.9902H68.4504C69.0904 90.7502 68.9804 92.0002 69.2704 92.9902C71.9104 102.24 78.7404 108.88 88.0704 111.29C89.4104 111.63 90.9804 111.61 92.0604 112.21V157.88H92.0504Z" fill="#D32D26"/>
<path d="M92.0497 21.5601V60.8201C81.7397 61.5701 72.5097 68.9401 69.5397 78.8201C68.5397 82.1501 68.1197 85.7301 68.5797 89.1801H48.9297V21.5601H92.0397H92.0497Z" fill="#D32D26"/>
<path d="M158.63 52.1001H96.96V21.5601H130.66C146.16 23.0201 158.95 36.3601 158.63 52.1001Z" fill="#D32D26"/>
<path d="M140.62 80.7202L148.26 75.6802C154.6 69.9302 158.82 61.6102 158.63 52.9102H96.96V60.6802L97.42 61.0402C113.46 63.0102 123.22 79.1602 118.52 94.4902C115.68 103.76 107.14 111.09 97.42 112.12L96.96 112.48V118.61H175C174.66 99.4402 159.75 82.7202 140.62 80.7102V80.7202Z" fill="#D32D26"/>
<path d="M169.29 119.44H96.9502V158.43H137.48C147.46 157.82 157.47 153.75 164.07 146.16C164.07 146.16 165.05 145.25 167.75 141.8C172.53 135.42 174.86 127.41 174.98 119.44H169.27H169.29Z" fill="#D32D26"/>
</g>
<defs>
<clipPath id="clip0_1530_7851">
<rect width="180" height="180" fill="white"/>
</clipPath>
</defs>
</svg>
