<svg width="16" height="16" viewBox="0 0 16 16" fill="none" xmlns="http://www.w3.org/2000/svg">
<g clip-path="url(#clip0_1530_7791)">
<path d="M4.28 1.95996H0.5V7.92996H4.28V1.95996Z" fill="#D32D26"/>
<path d="M8.17988 1.95996H4.37988V7.92996H6.10988C6.06988 7.62996 6.10988 7.30996 6.18988 7.01996C6.44988 6.14996 7.26988 5.49996 8.17988 5.42996V1.95996Z" fill="#D32D26"/>
<path d="M14.0601 4.65973C14.0901 3.26973 12.9601 2.08973 11.5901 1.96973H8.62012V4.65973H14.0601Z" fill="#D32D26"/>
<path d="M14.0601 4.72998H8.62012V5.41998L8.66012 5.44998C10.0801 5.61998 10.9401 7.04998 10.5201 8.39998C10.2701 9.21998 9.52012 9.85998 8.66012 9.95998L8.62012 9.98998V10.53H12.5901V8.14998H12.9601L13.0001 8.18998V9.01998H14.0401V8.14998H14.4501V10.53H15.5101C15.4801 8.83998 14.1601 7.35998 12.4801 7.18998L13.1501 6.74998C13.7101 6.23998 14.0801 5.50998 14.0601 4.73998V4.72998Z" fill="#D32D26"/>
<path d="M4.28 8H0.5V13.99H4.28V8Z" fill="#D32D26"/>
<path d="M8.17988 13.9898V9.95977C8.07988 9.90977 7.94988 9.90977 7.82988 9.87977C7.00988 9.66977 6.39988 9.07977 6.16988 8.26977C6.14988 8.17977 6.14988 8.06977 6.09988 8.00977H4.37988V13.9998H8.17988V13.9898Z" fill="#D32D26"/>
<path d="M9.00035 10.5998H8.61035V14.0398H12.1904C13.0704 13.9898 13.9504 13.6298 14.5404 12.9598H13.6304V10.5998H12.8604V13.0098H12.4104C12.0404 12.5498 11.7504 12.0098 11.3904 11.5498C11.3704 11.5298 11.3904 11.5098 11.3304 11.5198V13.0098H10.9204V10.5998H10.2904V10.9798H9.38035V11.4498L9.42035 11.4898H10.3004V11.8698H9.39035V12.5698H10.3004V12.9498H9.00035V10.5898V10.5998Z" fill="#D32D26"/>
<path d="M12.3904 10.6001H11.3604L12.3904 12.0901V10.6001Z" fill="#D32D26"/>
<path d="M15.5003 10.6001H14.9203V10.9801H14.0303V11.4901H14.9203V11.8701H14.0303V12.5701H14.8603C15.2803 12.0101 15.4903 11.3001 15.5003 10.6001Z" fill="#D32D26"/>
<path d="M4.28 8H0.5V13.99H4.28V8Z" fill="#D32D26"/>
<path d="M4.28 1.95996H0.5V7.92996H4.28V1.95996Z" fill="#D32D26"/>
<path d="M8.17988 13.99H4.37988V8H6.09988C6.15988 8.07 6.14988 8.18 6.16988 8.26C6.39988 9.08 7.00988 9.66 7.82988 9.87C7.94988 9.9 8.08988 9.9 8.17988 9.95V13.98V13.99Z" fill="#D32D26"/>
<path d="M8.17988 1.95996V5.41996C7.26988 5.48996 6.45988 6.13996 6.18988 7.00996C6.09988 7.29996 6.05988 7.61996 6.10988 7.91996H4.37988V1.95996H8.17988Z" fill="#D32D26"/>
<path d="M14.0601 4.65996H8.62012V1.95996H11.5901C12.9601 2.08996 14.0901 3.26996 14.0601 4.64996V4.65996Z" fill="#D32D26"/>
<path d="M12.4704 7.17998L13.1404 6.73998C13.7004 6.22998 14.0704 5.49998 14.0504 4.72998H8.61035V5.41998L8.65035 5.44998C10.0704 5.61998 10.9304 7.04998 10.5104 8.39998C10.2604 9.21998 9.51035 9.85998 8.65035 9.95998L8.61035 9.98998V10.53H15.5004C15.4704 8.83998 14.1504 7.35998 12.4704 7.18998V7.17998Z" fill="#D32D26"/>
<path d="M15.0001 10.6001H8.62012V14.0401H12.2001C13.0801 13.9901 13.9601 13.6301 14.5501 12.9601C14.5501 12.9601 14.6401 12.8801 14.8801 12.5801C15.3001 12.0201 15.5101 11.3101 15.5201 10.6101H15.0201L15.0001 10.6001Z" fill="#D32D26"/>
</g>
<defs>
<clipPath id="clip0_1530_7791">
<rect width="16" height="16" fill="white"/>
</clipPath>
</defs>
</svg>
